<svg width="76" height="76" viewBox="0 0 76 76" fill="none" xmlns="http://www.w3.org/2000/svg">
<path d="M38 19V38H52.25M66.5 38C66.5 41.7427 65.7628 45.4487 64.3306 48.9065C62.8983 52.3643 60.799 55.5061 58.1525 58.1525C55.5061 60.799 52.3643 62.8983 48.9065 64.3306C45.4487 65.7628 41.7427 66.5 38 66.5C34.2573 66.5 30.5513 65.7628 27.0935 64.3306C23.6357 62.8983 20.4939 60.799 17.8475 58.1525C15.201 55.5061 13.1017 52.3643 11.6694 48.9065C10.2372 45.4487 9.5 41.7427 9.5 38C9.5 30.4413 12.5027 23.1922 17.8475 17.8475C23.1922 12.5027 30.4413 9.5 38 9.5C45.5587 9.5 52.8078 12.5027 58.1525 17.8475C63.4973 23.1922 66.5 30.4413 66.5 38Z" stroke="#1A1A2C" stroke-width="2.5" stroke-linecap="round" stroke-linejoin="round"/>
</svg>
