<svg width="40" height="40" viewBox="0 0 40 40" fill="none" xmlns="http://www.w3.org/2000/svg">
<path d="M13.232 25.964C20.2637 25.964 25.964 20.2637 25.964 13.232C25.964 6.20031 20.2637 0.5 13.232 0.5C6.20031 0.5 0.5 6.20031 0.5 13.232C0.5 20.2637 6.20031 25.964 13.232 25.964Z" stroke="#1A1A2C" stroke-miterlimit="10"/>
<path d="M26.7486 25.964C33.7803 25.964 39.4806 20.2637 39.4806 13.232C39.4806 6.20031 33.7803 0.5 26.7486 0.5C19.7169 0.5 14.0166 6.20031 14.0166 13.232C14.0166 20.2637 19.7169 25.964 26.7486 25.964Z" stroke="#1A1A2C" stroke-miterlimit="10"/>
<path d="M13.232 39.5C20.2637 39.5 25.964 33.7997 25.964 26.768C25.964 19.7363 20.2637 14.036 13.232 14.036C6.20031 14.036 0.5 19.7363 0.5 26.768C0.5 33.7997 6.20031 39.5 13.232 39.5Z" stroke="#1A1A2C" stroke-miterlimit="10"/>
<path d="M26.7486 39.5C33.7803 39.5 39.4806 33.7997 39.4806 26.768C39.4806 19.7363 33.7803 14.036 26.7486 14.036C19.7169 14.036 14.0166 19.7363 14.0166 26.768C14.0166 33.7997 19.7169 39.5 26.7486 39.5Z" stroke="#1A1A2C" stroke-miterlimit="10"/>
</svg>
