<svg width="40" height="40" viewBox="0 0 40 40" fill="none" xmlns="http://www.w3.org/2000/svg">
<path d="M20 39.5C30.7696 39.5 39.5 30.7696 39.5 20C39.5 9.23045 30.7696 0.5 20 0.5C9.23045 0.5 0.5 9.23045 0.5 20C0.5 30.7696 9.23045 39.5 20 39.5ZM20 39.5C27.4095 39.5 33.416 33.4934 33.416 26.084C33.416 18.6745 27.4094 12.668 20 12.668C12.5905 12.668 6.58399 18.6745 6.58399 26.084C6.58399 33.4934 12.5905 39.5 20 39.5ZM20 39.5C24.3724 39.5 27.9169 35.9554 27.9169 31.583C27.9169 27.2106 24.3723 23.666 19.9999 23.666C15.6274 23.666 12.0829 27.2106 12.0829 31.583C12.0829 35.9554 15.6276 39.5 20 39.5Z" stroke="#1A1A2C" stroke-miterlimit="10"/>
</svg>
