<svg width="39" height="39" viewBox="0 0 39 39" fill="none" xmlns="http://www.w3.org/2000/svg">
<path d="M19.5 5.05538C11.5245 5.05538 5.05538 11.5196 5.05538 19.5M19.5 5.05538C27.4804 5.05538 33.9446 11.5245 33.9446 19.5M19.5 5.05538V0M5.05538 19.5C5.05538 27.4804 11.5245 33.9446 19.5 33.9446M5.05538 19.5H0M19.5 33.9446C27.4755 33.9446 33.9446 27.4755 33.9446 19.5M19.5 33.9446V39M33.9446 19.5H39M19.5 15.366V23.634M23.634 19.5H15.366M19.5 28.1824C14.703 28.1824 10.8128 24.2921 10.8128 19.4951C10.8128 14.6981 14.703 10.8079 19.5 10.8079C24.297 10.8079 28.1824 14.6981 28.1824 19.4951C28.1824 24.2921 24.297 28.1824 19.5 28.1824ZM28.1824 19.5C28.1824 24.297 24.297 28.1873 19.5 28.1873C14.703 28.1873 10.8128 24.297 10.8128 19.5C10.8128 14.703 14.703 10.8128 19.5 10.8128C24.297 10.8128 28.1824 14.703 28.1824 19.5Z" stroke="#1A1A2C" stroke-miterlimit="10"/>
</svg>
