<svg width="39" height="40" viewBox="0 0 39 40" fill="none" xmlns="http://www.w3.org/2000/svg">
<path d="M17.2453 28.3601L18.3724 23.3101M13.6005 26.6231L16.811 22.5636M11.073 23.4809L15.7278 21.2169M10.1557 19.553L15.3326 19.5335M11.0389 15.6155L15.7132 17.8404M13.5371 12.4537L16.7818 16.484M17.1672 10.6874L18.3382 15.7277M21.1975 10.6679L20.0704 15.7179M24.8423 12.4L21.6318 16.4645M27.3698 15.5472L22.715 17.8111M28.2871 19.475L23.1102 19.4945M27.4039 23.4126L22.7296 21.1876M24.9057 26.5743L21.661 22.544M21.2756 28.3406L20.1045 23.3003M18.958 39.0262L19.0507 32.1367M10.6827 37.0598L13.6981 30.8632M4.0323 31.7609L9.39462 27.4379M0.260625 24.1347L6.95986 22.505M0.0996094 15.635L6.85252 17.006M3.56389 7.86717L9.0921 11.9804M10.0045 2.31456L13.259 8.38925M18.1968 0.0261841L18.5579 6.91083M26.5843 1.44117L23.9836 7.82326M33.5714 6.29117L28.5067 10.9606M37.8359 13.654L31.2635 15.7228M38.558 22.1293L31.7319 21.2022M35.6109 30.1069L29.8241 26.3645M29.5509 36.0693L25.9012 30.224" stroke="#1A1A2C" stroke-miterlimit="10"/>
</svg>
