<svg width="19" height="19" viewBox="0 0 19 19" fill="none" xmlns="http://www.w3.org/2000/svg">
<path d="M13.7746 0.725006H5.07461C2.67217 0.725006 0.724609 2.67257 0.724609 5.07501V13.775C0.724609 16.1774 2.67217 18.125 5.07461 18.125H13.7746C16.177 18.125 18.1246 16.1774 18.1246 13.775V5.07501C18.1246 2.67257 16.177 0.725006 13.7746 0.725006Z" stroke="#1A1A2C" stroke-width="1.45" stroke-linecap="round" stroke-linejoin="round"/>
<path d="M12.9048 8.87692C13.0122 9.60098 12.8885 10.3405 12.5514 10.9902C12.2142 11.6399 11.6808 12.1668 11.027 12.4958C10.3732 12.8249 9.63223 12.9395 8.90956 12.8232C8.18688 12.7069 7.51928 12.3657 7.00169 11.8481C6.48411 11.3305 6.14291 10.6629 6.02662 9.94025C5.91033 9.21757 6.02488 8.47663 6.35397 7.82281C6.68306 7.16899 7.20993 6.63558 7.85964 6.29845C8.50936 5.96133 9.24883 5.83766 9.97288 5.94502C10.7114 6.05454 11.3952 6.3987 11.9232 6.92665C12.4511 7.4546 12.7953 8.13836 12.9048 8.87692Z" stroke="#1A1A2C" stroke-width="1.45" stroke-linecap="round" stroke-linejoin="round"/>
<path d="M14.21 4.64005H14.2187" stroke="#1A1A2C" stroke-width="1.45" stroke-linecap="round" stroke-linejoin="round"/>
</svg>
