<svg width="20" height="19" viewBox="0 0 20 19" fill="none" xmlns="http://www.w3.org/2000/svg">
<path d="M13.5465 6.21973C15.0037 6.21973 16.4013 6.79864 17.4318 7.82911C18.4622 8.85957 19.0412 10.2572 19.0412 11.7145V18.125H15.378V11.7145C15.378 11.2287 15.1851 10.7628 14.8416 10.4194C14.4981 10.0759 14.0322 9.8829 13.5465 9.8829C13.0607 9.8829 12.5948 10.0759 12.2513 10.4194C11.9079 10.7628 11.7149 11.2287 11.7149 11.7145V18.125H8.05176V11.7145C8.05176 10.2572 8.63066 8.85957 9.66112 7.82911C10.6916 6.79864 12.0892 6.21973 13.5465 6.21973Z" stroke="#1A1A2C" stroke-width="1.45" stroke-linecap="round" stroke-linejoin="round"/>
<path d="M4.38774 7.13562H0.724609V18.1251H4.38774V7.13562Z" stroke="#1A1A2C" stroke-width="1.45" stroke-linecap="round" stroke-linejoin="round"/>
<path d="M2.55617 4.38818C3.56772 4.38818 4.38774 3.56815 4.38774 2.55659C4.38774 1.54504 3.56772 0.725006 2.55617 0.725006C1.54463 0.725006 0.724609 1.54504 0.724609 2.55659C0.724609 3.56815 1.54463 4.38818 2.55617 4.38818Z" stroke="#1A1A2C" stroke-width="1.45" stroke-linecap="round" stroke-linejoin="round"/>
</svg>
