<svg width="21" height="25" viewBox="0 0 21 25" fill="none" xmlns="http://www.w3.org/2000/svg">
<path d="M13.7932 10.0812C13.7932 11.0658 13.402 12.0101 12.7058 12.7063C12.0096 13.4026 11.0653 13.7937 10.0807 13.7937C9.09605 13.7937 8.15176 13.4026 7.45553 12.7063C6.7593 12.0101 6.36816 11.0658 6.36816 10.0812C6.36816 9.0966 6.7593 8.15231 7.45553 7.45608C8.15176 6.75985 9.09605 6.36871 10.0807 6.36871C11.0653 6.36871 12.0096 6.75985 12.7058 7.45608C13.402 8.15231 13.7932 9.0966 13.7932 10.0812Z" stroke="#1A1A2C" stroke-width="1.6" stroke-linecap="round" stroke-linejoin="round"/>
<path d="M19.3623 10.0812C19.3623 18.9195 10.0811 24.0031 10.0811 24.0031C10.0811 24.0031 0.799805 18.9195 0.799805 10.0812C0.799805 7.6197 1.77765 5.25897 3.51822 3.5184C5.25879 1.77783 7.61951 0.799988 10.0811 0.799988C12.5426 0.799988 14.9033 1.77783 16.6439 3.5184C18.3845 5.25897 19.3623 7.6197 19.3623 10.0812Z" stroke="#1A1A2C" stroke-width="1.6" stroke-linecap="round" stroke-linejoin="round"/>
</svg>
