<svg width="70" height="29" viewBox="0 0 70 29" fill="none" xmlns="http://www.w3.org/2000/svg">
<g clip-path="url(#clip0_82_385)">
<path d="M17.9049 15.5832V11.9409L9.52981 11.9409L7.11892 14.5224H13.6765V15.5832L17.9049 15.5832Z" fill="white"/>
<path d="M49.3058 16.4363C49.3058 19.3516 46.7391 20.2121 45.122 20.2121L7.75695 20.2121C6.25849 20.2121 0.843261 18.9584 0.843262 14.1367C0.843262 9.31487 6.20656 8.35794 8.98835 8.35794L18.8767 8.35794C18.8767 8.35794 18.1201 9.27037 16.4658 11.5106L8.42457 11.5106C7.40087 11.5106 4.94548 12.2079 4.94548 14.426C4.94548 16.644 7.27477 17.2374 8.30588 17.2374H19.0696V8.35794L32.0068 8.35794C32.0068 8.35794 30.3303 9.21102 30.0039 11.4216L22.7044 11.4216V12.6901H31.2056L30.5677 13.5209L30.0706 14.1737L28.8689 15.7464H22.7044L22.6822 17.23L44.2467 17.2374C44.2467 17.2374 45.3074 17.2819 45.3074 16.3176C45.3074 15.4274 44.1873 15.4422 44.1873 15.4422H35.5823C35.5823 15.4422 35.5229 15.4422 35.4933 15.4422C34.5141 15.3903 32.5557 15.0788 31.8139 13.4764C31.5914 13.0388 31.4578 12.5195 31.4578 11.9038C31.4578 10.1235 32.5483 9.13684 33.9281 8.68434H33.9355C33.9429 8.68434 33.9503 8.68434 33.9651 8.67692C33.9874 8.6695 34.0171 8.66208 34.0393 8.65466C34.299 8.57307 34.9592 8.38019 35.5007 8.38019L48.9943 8.3802L46.2941 11.4661H36.6579C35.9458 11.4661 35.3894 11.8445 35.3894 12.3637C35.3894 12.883 35.8271 13.1946 36.4947 13.1946C37.1624 13.1946 44.2763 13.2316 45.1442 13.2316C45.1442 13.2316 49.291 13.2391 49.291 16.4585L49.3058 16.4363Z" fill="white"/>
<path d="M21.6138 7.10427C25.946 4.62662 32.4888 3.05398 39.8105 3.05398C52.8589 3.05398 63.4371 8.06121 63.4371 14.2331C63.4371 20.405 52.8589 25.4196 39.8104 25.4196C32.4888 25.4196 25.946 23.847 21.6138 21.3693C26.1685 25.1303 34.2246 27.6302 43.4082 27.6302C57.6288 27.6302 69.1565 21.6364 69.1565 14.2331C69.1565 6.82981 57.6288 0.843385 43.4082 0.843384C34.2246 0.843383 26.1685 3.34329 21.6138 7.10427Z" fill="white"/>
</g>
<defs>
<clipPath id="clip0_82_385">
<rect width="70" height="28.4736" fill="white"/>
</clipPath>
</defs>
</svg>
