<svg width="23" height="19" viewBox="0 0 23 19" fill="none" xmlns="http://www.w3.org/2000/svg">
<path d="M21.4248 3.27499V14.825C21.4248 15.4814 21.1741 16.1109 20.7278 16.5751C20.2815 17.0392 19.6762 17.3 19.045 17.3H3.17961C2.54845 17.3 1.94313 17.0392 1.49683 16.5751C1.05053 16.1109 0.799805 15.4814 0.799805 14.825V3.27499M0.799805 3.27499V3.54339C0.79976 3.96595 0.903743 4.38148 1.10185 4.75041C1.29995 5.11934 1.58559 5.42938 1.93154 5.65099L9.86423 10.7264C10.2395 10.9668 10.6716 11.0941 11.1123 11.0941C11.553 11.0941 11.9851 10.9668 12.3604 10.7264L20.2931 5.64989C20.639 5.42828 20.9247 5.11824 21.1228 4.74931C21.3209 4.38038 21.4248 3.96485 21.4248 3.54229V3.27499C21.4248 2.61858 21.1741 1.98905 20.7278 1.5249C20.2815 1.06075 19.6762 0.799988 19.045 0.799988H3.17961C2.54845 0.799988 1.94313 1.06075 1.49683 1.5249C1.05053 1.98905 0.799805 2.61858 0.799805 3.27499Z" stroke="#1A1A2C" stroke-width="1.6" stroke-linecap="round" stroke-linejoin="round"/>
</svg>
