<svg width="23" height="23" viewBox="0 0 23 23" fill="none" xmlns="http://www.w3.org/2000/svg">
<path d="M0.799805 5.5596C0.799805 14.3215 7.90327 21.425 16.6652 21.425H19.045C19.6762 21.425 20.2815 21.1743 20.7278 20.728C21.1741 20.2817 21.4248 19.6763 21.4248 19.0452V17.594C21.4248 17.0483 21.0536 16.5723 20.5237 16.4401L15.8455 15.2703C15.3801 15.1539 14.8914 15.3284 14.6048 15.7113L13.5788 17.0789C13.2806 17.4766 12.7655 17.6522 12.299 17.4809C10.5675 16.8443 8.99497 15.8389 7.69044 14.5344C6.38591 13.2298 5.38054 11.6573 4.74394 9.92576C4.57259 9.45931 4.74817 8.94422 5.14586 8.64595L6.51346 7.61999C6.8974 7.33335 7.07086 6.84364 6.95452 6.37931L5.78471 1.70114C5.72034 1.4438 5.57182 1.21535 5.36274 1.05208C5.15367 0.888803 4.89604 0.800076 4.63077 0.799988H3.17961C2.54845 0.799988 1.94313 1.05072 1.49683 1.49702C1.05053 1.94332 0.799805 2.54863 0.799805 3.1798V5.5596Z" stroke="#1A1A2C" stroke-width="1.6" stroke-linecap="round" stroke-linejoin="round"/>
</svg>
