<svg width="16" height="18" viewBox="0 0 16 18" fill="none" xmlns="http://www.w3.org/2000/svg">
<path d="M14.2904 4.08897C13.4213 3.89786 12.6351 3.43634 12.0446 2.77064C11.4541 2.10495 11.0896 1.2693 11.0036 0.383614V0H7.99567V11.9182C7.99628 12.447 7.83048 12.9626 7.52177 13.392C7.21305 13.8214 6.77706 14.1427 6.27556 14.3105C5.77407 14.4783 5.23248 14.4841 4.72752 14.327C4.22256 14.1699 3.77984 13.8579 3.46205 13.4352C3.17735 13.061 3.00301 12.6147 2.95876 12.1466C2.9145 11.6785 3.0021 11.2074 3.21164 10.7865C3.42117 10.3656 3.7443 10.0118 4.14446 9.76494C4.54462 9.51812 5.00586 9.38818 5.47602 9.38982C5.73604 9.38833 5.99477 9.42655 6.24325 9.50316V6.45169C5.95409 6.41588 5.66269 6.40131 5.3714 6.4081C4.29843 6.43677 3.2571 6.7777 2.37493 7.38916C1.49276 8.00062 0.808045 8.85605 0.404628 9.85072C0.00121076 10.8454 -0.103397 11.9361 0.103613 12.9893C0.310624 14.0425 0.820268 15.0125 1.57014 15.7805C2.33866 16.5618 3.32211 17.0971 4.39553 17.3182C5.46896 17.5394 6.58389 17.4365 7.59868 17.0225C8.61346 16.6086 9.48229 15.9023 10.0948 14.9934C10.7072 14.0846 11.0357 13.0141 11.0384 11.9182V5.81524C12.2516 6.68181 13.7063 7.14537 15.1971 7.14045V4.17616C14.9043 4.17737 14.6121 4.14815 14.3253 4.08897H14.2904Z" fill="#1A1A2C"/>
</svg>
